<?xml version="1.0" encoding="UTF-8" standalone="no"?>
<svg
   xmlns:dc="http://purl.org/dc/elements/1.1/"
   xmlns:cc="http://creativecommons.org/ns#"
   xmlns:rdf="http://www.w3.org/1999/02/22-rdf-syntax-ns#"
   xmlns:svg="http://www.w3.org/2000/svg"
   xmlns="http://www.w3.org/2000/svg"
   xmlns:sodipodi="http://sodipodi.sourceforge.net/DTD/sodipodi-0.dtd"
   xmlns:inkscape="http://www.inkscape.org/namespaces/inkscape"
   version="1.1"
   id="svg833"
   xml:space="preserve"
   width="620"
   height="391.52603"
   viewBox="0 0 619.99999 391.52603"
   sodipodi:docname="Logo Fédération Française Équitation.svg"
   inkscape:version="1.0 (4035a4f, 2020-05-01)"><metadata
     id="metadata839"><rdf:RDF><cc:Work
         rdf:about=""><dc:format>image/svg+xml</dc:format><dc:type
           rdf:resource="http://purl.org/dc/dcmitype/StillImage" /><dc:title /></cc:Work></rdf:RDF></metadata><defs
     id="defs837" /><sodipodi:namedview
     inkscape:document-rotation="0"
     pagecolor="#ffffff"
     bordercolor="#666666"
     borderopacity="1"
     objecttolerance="10"
     gridtolerance="10"
     guidetolerance="10"
     inkscape:pageopacity="0"
     inkscape:pageshadow="2"
     inkscape:window-width="1440"
     inkscape:window-height="759"
     id="namedview835"
     showgrid="false"
     inkscape:zoom="0.71689433"
     inkscape:cx="368.66222"
     inkscape:cy="274.15234"
     inkscape:window-x="0"
     inkscape:window-y="25"
     inkscape:window-maximized="0"
     inkscape:current-layer="g841" /><g
     id="g841"
     inkscape:groupmode="layer"
     inkscape:label="Logo"
     transform="matrix(1.3333333,0,0,-1.3333333,-347.02413,439.24333)"><g
       style="stroke-width:1.00126"
       transform="matrix(0.99874498,0,0,0.99874498,0.32664247,0.41344538)"
       id="g1122"><g
         style="fill:#45494c;fill-opacity:1;stroke-width:0.967742"
         id="g3054"
         transform="matrix(1.0346318,0,0,1.0346318,-12.100321,-11.408839)"><path
           d="m 625.66851,196.81988 c 0,0 9.60551,8.78802 27.46452,3.30141 0,0 18.39353,-5.7696 30.18425,-20.32721 0,0 -2.45247,-1.6507 -2.18521,-4.11889 0,0 0.26726,-2.37387 2.73545,-2.9241 0,0 2.84549,-0.72317 3.75731,1.46205 0,0 0.73888,1.2734 -0.18865,2.84549 l 5.21936,3.56866 c 0,0 3.56866,-4.9521 1.19479,-9.71556 0,0 -1.6507,-5.39229 -9.51118,-5.58094 0,0 -5.7696,-0.0943 -8.78802,4.40187 0,0 -2.38959,3.20708 -1.00614,8.41072 0,0 -7.68755,7.51462 -15.84674,11.53919 0,0 -8.96094,5.12503 -17.38738,5.48661 0,0 -5.03071,-0.0786 -8.50504,-1.91796 l -3.83592,-2.20093 z"
           style="fill:#45494c;fill-opacity:1;fill-rule:nonzero;stroke:none;stroke-width:0.967742"
           id="path981" /><path
           d="m 686.62026,186.93454 c 0,0 7.97053,3.3014 15.92534,-3.56866 l 3.28568,0.26726 -1.36773,8.78802 c 0,0 -5.48661,1.10046 -8.23778,4.11889 0,0 -3.3014,3.56866 -2.73545,9.60551 l -47.50875,42.55665 c 0,0 2.48391,1.66642 1.93368,7.15304 l 54.08011,-46.67554 c 0,0 -2.73545,-4.1189 0,-7.68755 0,0 3.01843,-4.40188 7.95481,-1.38345 l 3.3014,-20.86172 -12.90691,-4.9521 c 0,0 -1.63498,7.70327 -13.7244,12.63965"
           style="fill:#45494c;fill-opacity:1;fill-rule:nonzero;stroke:none;stroke-width:0.967742"
           id="path985" /><path
           d="m 602.33074,295.93585 18.6765,-16.75855 c 0,0 -7.97052,-6.03685 -9.33825,-13.44143 0,0 -3.49005,7.78188 -1.10047,13.44143 l -11.53918,10.98895 z"
           style="fill:#45494c;fill-opacity:1;fill-rule:nonzero;stroke:none;stroke-width:0.967742"
           id="path989" /><path
           d="m 628.27662,254.20298 c -2.27954,0 -4.1189,1.83935 -4.1189,4.11889 0,2.27954 1.83936,4.11889 4.1189,4.11889 2.27954,0 4.11889,-1.83935 4.11889,-4.11889 0,-2.27954 -1.83935,-4.11889 -4.11889,-4.11889 m 0.14149,15.3751 c -6.22551,0 -11.25621,-5.04643 -11.25621,-11.25621 0,-6.2255 5.0307,-11.25621 11.25621,-11.25621 6.20978,0 11.25621,5.03071 11.25621,11.25621 0,6.20978 -5.04643,11.25621 -11.25621,11.25621"
           style="fill:#45494c;fill-opacity:1;fill-rule:nonzero;stroke:none;stroke-width:0.967742"
           id="path993" /><path
           d="m 626.21717,329.4325 c 0,0 -21.1447,-16.74282 -34.58612,-41.73915 0,0 -11.1776,-18.03195 -12.90691,-38.97227 0,0 -1.93368,-16.4913 8.23778,-31.85068 0,0 10.15575,-13.74012 27.44881,-8.2535 0,0 9.33825,2.48391 15.10784,11.27193 l 5.21936,-3.85164 c 0,0 -5.0307,-12.98552 -23.89586,-15.92534 0,0 -15.65808,-1.6507 -26.63131,8.50505 0,0 -17.12013,15.46942 -12.45101,48.15331 0,0 4.30755,24.88628 19.30535,44.11302 0,0 -28.83225,-16.75854 -63.95289,-43.38986 0,0 -34.0516,-26.89857 -57.66449,-50.77871 0,0 -23.89587,-22.24517 -43.38986,-50.25992 0,0 -18.84944,-27.27588 -32.57384,-57.192869 0,0 -8.88234,-18.48785 -20.95604,-54.00151 h -1.10047 c 0,0 -0.47163,54.740389 -31.75635,82.189199 0,0 -19.13241,18.58218 -46.03098,31.01746 0,0 -20.78312,10.07714 -30.38863,12.54533 0,0 24.71336,-4.66913 55.99808,-23.61289 0,0 27.00861,-15.92534 38.53208,-33.2184 0,0 11.63351,-14.824869 17.74897,-37.337289 0,0 14.65194,38.154779 31.31616,64.786099 0,0 19.21102,32.4009 48.04327,61.50041 0,0 39.27096,39.25525 77.15849,67.27 0,0 40.63869,28.83225 55.55788,37.33729 0,0 33.12407,19.494 38.61069,21.69493"
           style="fill:#45494c;fill-opacity:1;fill-rule:nonzero;stroke:none;stroke-width:0.967742"
           id="path997" /></g><g
         style="stroke-width:0.967742"
         id="g3080"
         transform="matrix(1.0346318,0,0,1.0346318,-12.100321,-11.408839)"><path
           id="path1001"
           style="fill:#d82832;fill-opacity:1;fill-rule:nonzero;stroke:none;stroke-width:0.967742"
           d="m 529.84609,286.23444 c -4.84877,0.99918 -7.67907,-2.56906 -12.08942,-1.82363 -4.57772,-0.45115 -7.93737,-3.60816 -12.63135,-2.91632 -4.81698,-2.2722 -9.72028,-4.20412 -15.17904,-4.40965 -4.37544,-2.60514 -9.7397,-1.89014 -13.91305,-4.76345 -4.36816,0.24441 -5.63998,-2.88721 -9.1496,-2.56252 -4.25786,-1.8119 -9.62418,-1.93976 -13.55147,-4.76345 -4.44763,1.15195 -6.22256,-3.0229 -9.95809,-3.95129 -4.07824,-1.37693 -7.98212,-3.56125 -11.97312,-5.54424 -6.02302,-1.04676 -10.40687,-5.73579 -15.96025,-8.06086 -3.67161,-1.38111 -7.20907,-5.37938 -11.15795,-6.96832 -2.18545,-0.71336 -10.29872,-7.53464 -4.29177,-6.13813 6.8009,2.95357 -1.64653,-3.76926 -3.77308,-0.44895 -2.32424,-4.36859 -9.23627,-3.74749 -9.72586,-7.74391 -0.99699,0.11281 -4.52192,2.80228 -7.29193,-1.26949 -7.60699,-2.74324 -0.10527,-5.64229 -2.82202,-5.62282 -3.98005,-1.43761 -6.39064,-6.52344 -11.25626,-5.86392 -0.53375,-2.80305 -5.78095,-4.61536 -8.78802,-6.58708 0.12973,-2.48927 -6.57179,-4.1273 -8.78802,-6.96439 -2.10399,-0.82857 -8.82018,-7.97248 -4.58488,-5.87515 2.88801,-1.08718 5.06037,-3.84922 1.66072,-6.16757 -2.11708,-3.41599 -6.78051,-4.59695 -9.16526,-8.08011 3.45428,-0.39742 5.42534,3.74357 9.33825,4.48047 -0.32828,-0.99265 3.63829,5.15267 7.12153,5.76959 3.26596,0.2692 3.39834,4.77319 6.81023,4.91566 1.26488,5.00271 8.5188,3.03793 3.78575,-0.93825 -5.06957,-3.43302 -4.43647,-5.01577 0.412,-0.67738 4.5044,4.9745 5.4365,-1.04283 0.58539,-2.67174 -2.76868,-2.7025 -5.12234,-5.3521 -8.29824,-6.95936 -3.07153,-2.43536 -4.94613,-5.40195 -7.56974,-8.08007 -3.85577,-0.34219 -6.20733,-7.25843 -0.646,-3.71513 1.5228,2.14163 5.6374,7.8133 6.03685,3.83592 -0.25186,-2.40449 -6.19826,-6.65771 -5.28595,-8.49139 4.65213,0.48551 6.87242,3.0627 11.25088,4.07363 4.04186,3.76052 6.29169,2.03922 1.5884,-1.8089 -6.25455,-4.1598 -9.13172,-11.46607 -15.24088,-15.71981 -0.92954,-3.82 6.62439,-0.85234 7.9548,1.63498 4.39835,2.07261 5.38356,7.74601 10.53305,8.33211 4.46677,0.54766 6.75857,3.15659 10.29517,4.60579 2.63558,0.8748 7.75851,9.36265 7.81538,6.46177 -2.73111,-3.54604 -5.31527,-6.97034 -7.74404,-11.01291 2.50587,-3.09957 5.6458,4.98478 8.55889,6.74473 4.49428,3.65966 5.69312,10.00441 11.46322,12.33304 3.25693,2.69295 5.50471,5.94842 9.32254,7.9548 0.75784,2.42903 5.15042,2.66485 5.21936,7.13732 3.09867,-1.33499 5.44592,4.63287 7.99736,6.62689 4.2178,2.05097 6.96639,6.21613 10.32376,6.88539 2.58051,2.43314 4.56829,4.23182 8.13726,6.53195 3.15812,2.47744 5.58307,4.77658 9.07972,6.49437 3.01165,3.35189 7.86014,3.89347 10.6982,7.43536 4.21524,2.22638 7.76751,5.50872 11.69697,8.31661 5.76414,2.91823 11.28378,6.46587 16.88679,9.39563 4.69554,2.87038 9.34575,6.59201 14.96236,8.44652 3.04706,2.63778 7.29776,3.19948 10.15574,6.03685 2.8075,0.99729 5.37671,3.52208 8.73843,4.03237 1.1478,0.93869 5.70381,3.06698 8.52226,4.36787 2.40188,3.13694 6.20644,4.13409 10.03576,5.22161 5.06015,-0.84808 3.41488,5.60864 6.29928,5.30616 3.33743,0.76381 6.47684,1.37841 9.2606,3.06658 -2.04403,2.15812 -6.18113,-1.74721 -9.31521,-1.31158 -6.98133,-1.27782 -1.03171,1.72204 2.20308,3.34411 5.7727,0.0715 10.97486,2.32579 16.52804,3.61035 -1.78588,3.59014 -7.54841,-0.72577 -10.81602,-1.00614 -4.77129,-0.27356 -10.05514,-0.43934 -14.27464,-3.3014 -2.48518,0.91335 -3.2142,-2.15945 -6.03686,-1.17912 z" /><path
           id="path1005"
           style="fill:#1c4a9a;fill-opacity:1;fill-rule:nonzero;stroke:none;stroke-width:0.967742"
           d="m 551.81142,302.5245 c -5.66713,0.77511 -11.23558,-0.31036 -16.75855,-0.55023 -4.45035,0.76438 -8.38618,-1.02378 -13.39416,-0.81749 -4.30049,-0.6576 -9.18857,-1.44004 -13.15658,-2.30509 -3.40254,-1.88763 -7.19297,-4.1044 -11.58827,-3.74748 -2.52071,-2.9844 -7.52039,-1.10836 -10.72174,-3.55294 -3.71711,-2.52332 -6.88982,-1.97453 -11.16144,-3.89657 -4.3037,-0.41838 -8.15379,-1.06698 -12.05002,-3.7114 -3.695,-1.15775 -6.46586,-2.6397 -10.2742,-3.38098 -3.90023,-0.74856 -6.34093,-2.31284 -9.99142,-4.20755 -2.87056,-0.3994 -7.02169,-4.58955 -10.88602,-4.58047 -3.05678,-1.9138 -8.77412,-3.34417 -12.0737,-5.7696 -5.55258,-0.71174 -8.08532,-4.35848 -13.15709,-5.98825 -4.11245,-0.0957 -5.88457,-3.94324 -9.59104,-4.43472 -2.94298,-0.85929 -4.42682,-5.00857 -8.65751,-5.7026 -4.38254,-3.38 -5.29974,-2.59669 -7.65006,-5.40034 -3.85899,-3.0498 -9.35222,-0.42277 -12.8392,-4.27216 -5.92167,-1.7169 -10.02505,-7.42369 -16.20831,-8.78802 -4.08772,-3.37019 -9.9576,-1.57748 -14.54189,-4.11889 -2.80651,-3.36495 -7.82359,-4.53906 -11.35054,-7.32597 -0.57974,2.66785 -8.06627,-0.60048 -0.73892,3.47433 5.1953,4.30593 10.19549,9.21898 16.47557,11.80644 4.46123,4.2589 1.33283,4.85219 -3.01842,3.01843 -2.23908,-2.46196 -6.46668,-2.91375 -9.43258,-1.82363 3.41386,5.92337 11.85552,5.72025 14.9192,11.97937 -0.93934,3.49511 5.4231,5.60863 9.33825,6.60281 2.88661,1.83143 10.54325,7.07392 3.09212,3.81966 -4.25784,-0.57201 -6.49488,-4.82614 -11.04693,-4.10264 -4.91867,0.50149 -5.67318,-3.82151 -9.33825,-3.83592 -3.13574,-2.31342 -6.28976,-3.64907 -9.05528,-6.58708 -5.65058,0.48581 1.68375,3.46283 3.17725,5.05516 -0.40997,3.33047 5.95916,6.21559 0.36937,6.21229 -3.17576,0.84134 -6.91169,-0.0206 -8.73633,-2.64368 -1.94425,0.0385 -9.55641,-3.03105 -5.53198,0.98174 3.63521,0.87941 6.14305,3.31434 9.53239,4.41664 4.19836,1.92441 8.45534,2.86342 12.32938,5.83039 1.08054,3.89179 -6.31903,-0.45599 -8.68761,-1.19176 -1.73054,-4.10838 -11.16339,-1.59324 -3.89801,1.05264 2.51124,0.43475 12.73889,3.91654 6.45862,3.59293 -5.99467,-2.64474 -12.26356,-3.91046 -17.91999,-7.38101 -6.72182,0.86271 2.24392,3.79369 4.60655,4.87449 5.24454,2.8786 11.34384,3.6475 15.97219,7.74944 5.47284,1.70361 11.06759,3.42002 15.60044,6.84281 3.6993,0.83731 8.02553,-2.5e-4 11.03088,3.04568 6.50816,0.77556 12.19454,4.93622 18.37514,6.23941 4.56017,-1.15625 8.47016,2.13797 11.23985,4.90721 4.09595,1.09347 8.39789,0.31786 11.85691,3.12801 3.71059,1.06191 7.79033,0.0541 10.423,3.56866 3.68734,-0.48965 10.40444,-2.05258 6.46043,0.95748 3.46574,-0.23056 7.21562,1.36578 11.11561,2.59546 5.03252,-0.35834 9.49514,3.23754 14.52612,1.66642 6.1366,0.86749 12.26244,2.55231 18.27263,3.18311 3.87833,0.22414 8.35648,1.02418 12.49329,1.75327 5.46973,-0.15406 10.62158,1.30561 15.94111,2.18522 4.03916,-0.27795 8.23398,1.16671 12.05793,-0.53452 3.99102,-0.5171 7.72419,1.20057 11.24762,2.08392 4.96741,-0.47832 9.81571,0.27467 14.81178,-0.31135 3.30287,-1.14083 10.02977,3.1998 9.3757,-1.23805 6.96569,-0.0248 1.29024,1.97987 3.7975,3.22335 5.34676,-1.44023 10.92724,1.46233 16.52971,0.36103 4.37744,0.5586 1.8938,-3.23742 7.40457,-1.6507 7.15143,-0.20339 -0.98518,-2.83759 -3.85163,-2.20094 -5.80936,-1.97312 -11.55594,-0.10824 -17.19874,-1.55637 -5.62998,0.70859 -11.39436,0.12107 -16.83715,-1.1791 -4.3402,-0.13655 -8.88262,-0.69392 -13.04346,-0.96387 -5.20786,-1.42785 5.34319,-3.18108 7.21399,-0.70756 3.95757,-0.17358 7.28291,0.11236 11.00071,1.00065 3.28479,-0.68731 8.32707,1.31442 10.63178,-0.66492 -2.723,-2.81025 5.29695,-2.81799 8.03807,-2.5914 4.70651,0.6133 7.12574,-1.55632 1.68976,-2.67571 -0.89336,-0.65674 -1.96964,-0.66274 -3.0184,-0.81749 z" /><path
           id="path1009"
           style="fill:#d82832;fill-opacity:1;fill-rule:nonzero;stroke:none;stroke-width:0.967742"
           d="m 601.59657,301.06088 c 6.83575,3.91939 14.36623,5.67172 22.19604,6.72268 4.73819,2.38459 8.78226,0.57317 6.40629,-2.18915 6.41136,1.97676 15.32479,-1.9988 3.24834,-1.23213 -4.85045,-1.87944 -9.96473,0.17577 -15.01352,-2.75117 -10.87056,-2.85224 2.97215,-1.27104 7.8762,-1.10046 6.52158,-0.32821 12.97207,0.0642 19.58833,0.18865 3.42801,-0.80935 12.40446,0.26604 17.70573,-0.78015 4.64982,-2.32643 8.12364,0.78288 12.85582,-1.23214 0.0201,-3.96286 -2.85445,-1.16647 -6.40433,-2.33652 -6.84879,1.55671 -13.41419,1.61466 -20.50996,1.22034 -4.22861,1.46755 -10.14038,-1.70052 -13.81676,0.90002 -7.10502,-0.62924 -15.6938,-0.40085 -22.21372,-0.82732 -4.2236,-0.99091 -11.01012,-2.82272 -11.91846,3.41735 z" /></g><g
         id="g1096"
         style="fill:#1c4a9a;fill-opacity:1;stroke-width:1.00126"><path
           d="M 464.84556,135.18638 V 103.227 H 479.656 q 5.09671,0 7.43521,2.21858 2.39844,2.27852 3.17794,8.93423 h 2.21857 V 86.857563 h -2.21857 q -0.0599,4.736944 -1.25918,6.955512 -1.13926,2.218568 -3.23791,3.297872 -2.03869,1.139264 -6.11606,1.139264 h -14.81044 v -25.54352 q 0,-6.176015 0.77949,-8.154739 0.59962,-1.499033 2.51838,-2.578336 2.63829,-1.439072 5.51644,-1.439072 h 2.9381 v -2.218569 h -34.89748 v 2.218569 h 2.87814 q 5.03675,0 7.31528,2.938104 1.43908,1.918762 1.43908,9.234043 v 52.526119 q 0,6.17601 -0.7795,8.15474 -0.59961,1.49903 -2.45842,2.57833 -2.57834,1.43907 -5.51644,1.43907 h -2.87814 v 2.21857 h 60.50097 l 0.7795,-17.86847 h -2.09865 q -1.559,5.69633 -3.65764,8.33462 -2.03869,2.69826 -5.09672,3.89749 -2.99806,1.19922 -9.35396,1.19922 z"
           style="font-style:normal;font-variant:normal;font-weight:normal;font-stretch:normal;font-size:150px;line-height:1.25;font-family:'Times New Roman';-inkscape-font-specification:'Times New Roman, ';fill:#1c4a9a;fill-opacity:1;stroke-width:0.750942"
           id="path994" /><path
           d="M 546.82396,135.18638 V 103.227 h 14.81044 q 5.09672,0 7.4352,2.21858 2.39846,2.27852 3.17796,8.93423 h 2.21857 V 86.857563 h -2.21857 q -0.06,4.736944 -1.25919,6.955512 -1.13927,2.218568 -3.23792,3.297872 -2.03868,1.139264 -6.11605,1.139264 h -14.81044 v -25.54352 q 0,-6.176015 0.77949,-8.154739 0.59962,-1.499033 2.51838,-2.578336 2.6383,-1.439072 5.51644,-1.439072 h 2.93811 v -2.218569 h -34.8975 v 2.218569 h 2.87815 q 5.03675,0 7.31528,2.938104 1.43907,1.918762 1.43907,9.234043 v 52.526119 q 0,6.17601 -0.7795,8.15474 -0.59961,1.49903 -2.45841,2.57833 -2.57833,1.43907 -5.51644,1.43907 h -2.87815 v 2.21857 h 60.50098 l 0.77949,-17.86847 h -2.09865 q -1.55898,5.69633 -3.65763,8.33462 -2.03868,2.69826 -5.09672,3.89749 -2.99806,1.19922 -9.35396,1.19922 z"
           style="font-style:normal;font-variant:normal;font-weight:normal;font-stretch:normal;font-size:150px;line-height:1.25;font-family:'Times New Roman';-inkscape-font-specification:'Times New Roman, ';fill:#1c4a9a;fill-opacity:1;stroke-width:0.750942"
           id="path996" /><path
           d="m 624.6051,135.18638 v -32.13926 h 17.86847 q 6.95552,0 9.294,2.09864 3.118,2.75823 3.47776,9.71374 h 2.21857 V 86.557756 h -2.21857 q -0.83946,5.936171 -1.67891,7.615087 -1.07931,2.098646 -3.53772,3.297869 -2.45842,1.199232 -7.55513,1.199232 H 624.6051 V 71.867233 q 0,-5.396518 0.47969,-6.595745 0.47969,-1.139265 1.67892,-1.858801 1.19923,-0.659575 4.55706,-0.659575 h 13.7911 q 6.89555,0 10.01354,0.959382 3.11799,0.959381 5.99613,3.777563 3.7176,3.717602 7.61509,11.212766 h 2.39845 L 664.1196,58.315975 h -62.65957 v 2.218569 h 2.87814 q 2.87815,0 5.45648,1.379111 1.91876,0.959381 2.57834,2.878143 0.71953,1.918762 0.71953,7.854932 v 52.82592 q 0,7.73501 -1.55898,9.53385 -2.15861,2.39845 -7.19537,2.39845 h -2.87814 v 2.21857 h 62.65957 l 0.89943,-17.80851 h -2.33849 q -1.25919,6.41587 -2.81818,8.81431 -1.49904,2.39846 -4.49711,3.65765 -2.39844,0.89941 -8.45454,0.89941 z"
           style="font-style:normal;font-variant:normal;font-weight:normal;font-stretch:normal;font-size:150px;line-height:1.25;font-family:'Times New Roman';-inkscape-font-specification:'Times New Roman, ';fill:#1c4a9a;fill-opacity:1;stroke-width:0.750942"
           id="path998" /></g></g></g></svg>
